<?xml version="1.0" encoding="UTF-8"?>
<!DOCTYPE svg PUBLIC "-//W3C//DTD SVG 1.1//EN" "http://www.w3.org/Graphics/SVG/1.1/DTD/svg11.dtd">
<!-- Creator: CorelDRAW 2019 (64 Bit) -->
<svg xmlns="http://www.w3.org/2000/svg" xml:space="preserve" width="35.9739mm" height="19.2284mm" version="1.1" style="shape-rendering:geometricPrecision; text-rendering:geometricPrecision; image-rendering:optimizeQuality; fill-rule:evenodd; clip-rule:evenodd"
viewBox="0 0 28098.87 15019.12"
 xmlns:xlink="http://www.w3.org/1999/xlink">
 <defs>
  <style type="text/css">
   <![CDATA[
    .fil1 {fill:#1DBBEE;fill-rule:nonzero}
    .fil0 {fill:white;fill-rule:nonzero}
   ]]>
  </style>
 </defs>
 <g id="Camada_x0020_1">
  <metadata id="CorelCorpID_0Corel-Layer"/>
  <g id="_2550024886224">
   <path class="fil0" d="M3703.85 1262.71c-168.64,461.86 -319.08,873.26 -473.65,1296.22l948.17 0c-156.22,-426.79 -306.42,-836.86 -474.51,-1296.22zm119.98 5122.78c-168.64,462.09 -319.08,873.18 -473.34,1296.06l947.85 0c-156.22,-426.71 -306.11,-836.47 -474.51,-1296.06zm-1828.53 2658.68c183.24,-449.67 369.53,-898.57 548.87,-1350.19 281.35,-708.06 500.68,-1258.1 773.2,-1969.83 46.87,-122.87 111.85,-317.44 297.91,-317.44 188.71,0 378.05,3.05 575.35,3.05 492.95,1219.28 983.39,2432.78 1483.84,3670.81 -275.57,0 -529.34,4.92 -782.57,-4.69 -41.87,-1.41 -100.06,-57.33 -119.35,-101.39 -67.49,-156.84 -113.26,-322.67 -185.12,-477.01 -23.2,-50.15 -100.6,-104.98 -154.34,-106.07 -409.21,-8.83 -818.9,-8.28 -1228.42,-0.31 -48.74,0.86 -119.27,53.5 -140.21,99.75 -69.99,155.2 -114.12,322.43 -185.2,476.7 -23.12,50.22 -97.56,105.84 -150.75,108.34 -243.86,11.56 -488.81,4.92 -733.21,5.23l0 -36.95zm9478.14 -3869.91l751.1 0 0 697.75 -751.1 0 0 -697.75zm757.42 3893.5l-756.64 0 0 -2815.21 756.64 0 0 2815.21zm5180.5 -676.03l0 672.91c-8.83,1.64 -17.34,5 -26.17,5 -191.52,0 -382.73,3.28 -574.26,-1.64 -187.38,-4.45 -366.49,-47.96 -527.16,-148.56 -246.59,-154.27 -370.55,-386.87 -402.81,-667.91 -16.79,-147.16 -12.65,-297.36 -13.51,-446.16 -1.64,-291.74 -0.55,-583.47 -0.55,-875.6l0 -60.07 -506.22 0c0,-57.33 -1.87,-109.98 1.09,-162.31 0.62,-13.2 14.92,-26.71 25.39,-37.73 353.83,-375.55 707.9,-751.41 1062.83,-1126.18 12.11,-12.65 34.13,-20.7 52.33,-22.34 36.63,-3.59 74.13,-1.09 116.3,-1.09l0 728.52 773.2 0 0 618.08 -761.95 0 0 54.83c0,338.92 -0.78,677.91 0.55,1016.75 0.31,55.93 3.36,113.49 17.11,167.54 45.23,179.1 183.79,278.85 393.2,284.86 104.98,3.05 210.27,0.86 315.25,1.09l55.38 0zm-4627.96 -243.47l740.08 0c5,29.99 7.73,59.52 14.61,87.87 25.93,105.53 87.95,184.34 186.29,228.7 161.45,72.72 327.9,79.91 492.71,12.11 46.01,-18.98 90.61,-51.79 123.96,-88.97 95.61,-105.29 71.94,-250.73 -47.96,-326.57 -94.75,-60.07 -203.32,-78.81 -310.25,-102.48 -196.76,-43.51 -394.84,-82.41 -589.41,-134.19 -124.51,-33.04 -237.22,-98.1 -333.99,-185.74 -180.43,-163.01 -239.17,-374.61 -225.11,-608.31 23.2,-383.05 238.94,-628.23 584.18,-760.55 354.93,-136.38 718.68,-138.57 1075.25,-3.59 350.48,132.55 557.15,387.19 600.66,765 3.05,26.17 0.55,53.11 0.55,82.87l-719.46 0c-3.28,-20.07 -7.19,-39.91 -10.15,-59.75 -18.51,-115.99 -84.9,-194.26 -193.16,-233.7 -138.33,-50.38 -279.47,-52.88 -419.68,-7.97 -63.97,20.7 -118.26,57.57 -152.94,117.94 -61.71,106.62 -36.63,228.94 73.27,282.13 90.14,44.13 189.88,71.7 287.68,95.06 190.2,45.54 383.05,78.81 572.93,124.9 126.69,31.09 245.18,86.23 349.38,166.92 218.47,169.11 282.99,403.12 264.79,664.32 -28.67,407.81 -258.46,665.96 -632.92,797.42 -368.44,129.5 -742.35,133.96 -1107.74,-11.56 -343.6,-136.14 -554.96,-387.11 -611.98,-758.28 -6.87,-46.08 -7.73,-92.64 -11.56,-143.56zm-4236.09 0.23l739.85 0c4.69,28.67 7.42,57.88 14.29,86 27.34,113.26 95.92,193.71 201.99,237.76 152.16,63.42 308.61,69.44 462.95,11.33 49.29,-18.98 97.56,-52.65 134.19,-90.68 101.15,-106.07 77.95,-256.51 -46.32,-333.37 -95.06,-58.74 -203.08,-79.91 -310.8,-100.29 -213.55,-40.23 -429.83,-68.89 -633.46,-150.2 -201.76,-80.22 -372.58,-197.46 -454.67,-408.59 -137,-352.43 -51.86,-799.37 344.7,-1041.04 260.1,-158.17 546.14,-201.68 844.83,-182.38 240.58,15.39 466.23,77.95 661.9,224.33 235.58,176.29 346.88,416.32 355.71,712.28l-722.51 0c-1.33,-4.14 -3.59,-9.92 -4.14,-15.7 -19.84,-170.04 -101.07,-260.1 -270.26,-298.14 -115.21,-25.39 -230.11,-25.07 -343.37,11.25 -62.57,20.15 -116.54,53.74 -153.17,110.52 -69.75,107.71 -44.68,237.53 69.99,293.22 88.97,43.19 187.07,70.22 283.77,93.34 190.12,45.23 382.73,78.58 572.62,124.58 127.01,30.85 245.5,85.69 349.93,166.14 218.78,168.56 284.08,402.5 266.2,663.77 -28.12,407.81 -257.37,666.5 -631.59,798.82 -371.72,131.15 -748.91,134.43 -1116.8,-13.51 -340.56,-137.55 -549.42,-389.61 -605.11,-758.91 -6.56,-44.6 -6.87,-90.06 -10.7,-140.52zm-2739.83 0.55l740.4 0c5,30.31 7.97,60.07 15.15,88.42 27.57,113.02 97.56,192.62 203.94,236.2 148.8,60.85 302.52,68.58 453.81,11.56 52.1,-20.15 103.89,-54.29 142.47,-94.82 98.89,-104.67 74.91,-253.46 -46.87,-329.85 -95.06,-59.52 -203.63,-77.95 -310.56,-101.62 -196.68,-43.58 -394.53,-82.72 -589.41,-134.5 -122.87,-32.81 -234.17,-97.25 -330.09,-183.24 -182.7,-163.56 -241.9,-376.33 -227.3,-611.59 23.12,-381.09 237.53,-625.58 580.82,-758.05 359.93,-138.88 728.05,-140.83 1088.14,-1.17 346.02,133.96 548.56,388.59 591.05,762.5 2.73,26.17 0.23,52.88 0.23,82.09l-719.38 0c-5.23,-30.85 -7.97,-60.93 -15.39,-89.28 -26.79,-101.7 -91.23,-170.28 -189.34,-205.27 -136.93,-49.05 -276.66,-53.43 -414.99,-8.28 -99.98,33.04 -171.68,96.15 -184.65,208.63 -10.15,88.42 23.75,159.5 102.56,193.4 92.32,40.23 190.12,70.84 288.22,94.28 190.12,45.15 383.28,77.64 572.62,125.05 142.08,35.31 274.32,98.42 385.39,196.99 189.57,168.64 244.72,389.3 227.84,630.42 -29.99,430.15 -279.63,689.7 -674.16,815.61 -356.26,113.57 -717.28,114.35 -1068.06,-26.4 -343.05,-137.55 -554.11,-388.51 -610.89,-759.45 -6.87,-44.6 -7.42,-90.37 -11.56,-141.61zm21554.81 -5600.26c3.36,-440.93 -336.65,-783.12 -774.53,-779.29 -435.07,3.83 -762.19,332.35 -764.69,768.51 -2.73,444.21 331.26,780.39 772.65,777.58 435.69,-2.42 763.28,-330.09 766.56,-766.8zm112.71 -1161.48c-1.09,-245.5 137.78,-259.56 326.57,-259.56 96.7,0 297.28,1.95 297.28,1.95l0 2815.52 -576.68 0c-23.2,-61.39 -49.91,-132.79 -84.59,-225.89 -407.03,319.08 -857.25,390.7 -1336.45,264.24 -323.22,-85.45 -584.18,-272.52 -780.62,-546.45 -409.53,-572.07 -355.24,-1415.26 121.23,-1933.82 384.37,-418.51 1234.2,-702.36 2033.26,-115.99zm-3703.31 -642.29l0 -467.33 0 -223.78 748.13 0 0 691.11 -748.13 0zm-5019.44 -659.24c-111.07,-53.74 -252.14,-81.86 -396.48,-85.76l-0.86 0 -1.09 0c-144.66,3.91 -285.49,32.02 -396.56,85.76 -245.5,118.49 -382.73,460.37 -573.95,712.82 413.9,84.05 754.22,33.9 971.6,-315.48 217.14,349.38 557.46,399.53 971.29,315.48 -191.21,-252.45 -328.45,-594.33 -573.95,-712.82zm5026.08 1053.38l747.58 0 0 2803.72 -747.58 0 0 -2803.72zm-7208.29 1.17c-424.37,720.87 -827.25,1405.57 -1244.67,2114.57l1180.7 0 0 691.11 -2372.17 0c419.91,-713.14 823.03,-1398.15 1241.86,-2108.79l-1070.25 0 0 -696.89 2264.54 0zm3867.02 -2.19c282.13,-8.51 599.02,-117.63 637.84,344.46 236.2,-222.38 473.73,-355.47 762.19,-400.07 642.29,-99.2 1183.43,280.49 1221.47,926.92 37.18,639.01 7.97,1282.16 7.97,1936.01l-754.06 0c0,-61.71 0,-126.46 0,-190.98 -0.55,-464.51 6.01,-929.42 -3.91,-1393.7 -9.61,-440.3 -155.12,-616.44 -481.07,-618.31 -364.61,-1.72 -620.03,247.68 -629.95,641.2 -11.01,451.86 -3.83,904.58 -4.92,1357.07 0,65.85 0,131.46 0,207.22l-755.55 0 0 -2809.82zm-1335.43 1403.62c-1.09,-446.71 -321.57,-775.15 -754.69,-772.89 -434.29,1.87 -752.03,330.87 -750.94,777.58 0.86,448.89 317.98,771.8 755.31,770.16 438.66,-1.95 751.41,-324.86 750.32,-774.84zm-765.47 1495.94c-883.1,-5.23 -1520.78,-644.79 -1513.91,-1518.28 6.64,-849.2 664.08,-1471.73 1547.26,-1465.33 871.31,6.01 1511.64,647.21 1505.86,1507.82 -5.47,850.3 -663.22,1481.03 -1539.22,1475.79zm-5371.4 -1488.91c3.28,-440.93 -336.73,-783.12 -774.61,-779.29 -435.07,3.83 -762.42,332.35 -764.69,768.51 -2.73,444.21 331.26,780.39 772.65,777.58 435.69,-2.42 763.28,-330.09 766.64,-766.8zm112.71 -1161.48c-1.17,-245.5 137.71,-259.56 326.5,-259.56 96.7,0 297.28,1.95 297.28,1.95l0 2815.52 -576.68 0c-23.2,-61.39 -49.91,-132.79 -84.59,-225.89 -407.03,319.08 -857.25,390.7 -1336.45,264.24 -323.22,-85.45 -584.18,-272.52 -780.62,-546.45 -409.45,-572.07 -355.16,-1415.26 121.23,-1933.82 384.37,-418.51 1233.89,-702.36 2033.33,-115.99zm-4780.98 113.88c185.74,-215.82 396.01,-362.35 667.13,-412.26 590.74,-108.81 1100.24,241.67 1171.64,841.55 40.54,338.13 28.67,683.06 33.59,1025.02 4.69,323.53 1.17,647.6 1.17,986.75l-767.73 0c0,-388.75 3.28,-778.12 -1.09,-1167.5 -2.73,-225.42 -7.73,-452.17 -30.31,-676.19 -17.89,-176.06 -108.88,-315.25 -300.33,-345.55 -206.68,-32.81 -414.21,1.41 -506.77,202.54 -78.5,171.14 -120.13,371.17 -127.01,560.51 -17.34,469.75 -5.78,940.98 -5.78,1426.74l-748.99 0c0,-244.95 0.31,-487.95 -0.23,-731.02 -0.55,-336.42 3.83,-672.91 -4.69,-1009.09 -6.33,-252.92 -134.66,-420.46 -323.14,-451.86 -262.37,-43.82 -483.89,71.94 -569.57,319.62 -41.09,118.49 -58.97,250.18 -60.61,376.17 -6.64,494.82 -2.81,989.49 -2.81,1497.9l-758.83 0 0 -2815.05c140.21,0 284.08,-2.81 427.65,0.78 210.82,5.55 217.92,180.2 245.81,313.84 651.9,-527.08 1188.35,-514.66 1660.91,57.1zm-6421.19 2420.36c183.24,-449.67 369.46,-898.57 548.87,-1350.51 281.35,-707.9 500.68,-1257.87 773.2,-1969.6 46.87,-122.94 111.85,-317.75 297.83,-317.75 188.79,0 378.13,3.05 575.35,3.05 493.02,1219.59 983.47,2433.1 1483.84,3671.2 -275.49,0 -529.27,4.92 -782.5,-4.69 -41.94,-1.41 -100.06,-57.33 -119.35,-101.46 -67.49,-156.76 -113.26,-322.67 -185.2,-476.93 -23.12,-50.15 -100.53,-104.98 -154.27,-106.07 -409.21,-8.83 -818.97,-8.28 -1228.42,-0.31 -48.74,0.86 -119.35,53.5 -140.28,99.75 -69.99,155.12 -114.04,322.12 -185.12,476.7 -23.2,50.15 -97.56,105.53 -151.06,108.34 -243.86,11.56 -488.49,4.92 -732.9,5.23l0 -36.95z"/>
   <g>
    <path class="fil0" d="M11189.12 15019.12l-10242.52 0c-548.01,0 -950.04,-451.63 -946.53,-951.84 0.86,-127.55 28.12,-258.23 86,-385.39l968.55 -2126.91c150.36,-331.1 477.48,-545.9 840.06,-553.64l10312.66 0c685.48,9.61 1134.92,726.18 840.92,1348.87l-1004.09 2127.14c-156.53,330.71 -489.35,541.76 -855.06,541.76z"/>
    <path class="fil1" d="M3983.17 13597.69c-96,46.87 -245.11,77.33 -391.01,77.33 -451.16,0 -712.59,-291.97 -712.59,-746.1 0,-487.79 288.77,-765.7 723.52,-765.7 154.5,0 284.08,32.81 374.61,77.25l57.8 -195.9c-63.27,-32.73 -209.18,-82.72 -440.22,-82.72 -576.05,0 -969.41,394.14 -969.41,974.88 0,608.7 393.36,938.87 917.08,938.87 225.58,0 401.95,-43.74 490.21,-88.19l-49.99 -189.73zm1294.03 250.57c-16.4,-90.53 -21.87,-203.71 -21.87,-319.23l0 -498.73c0,-266.9 -99.12,-544.73 -506.54,-544.73 -167.78,0 -327.82,46.87 -437.88,117.87l55.46 159.97c92.87,-60.85 222.38,-99.12 346.49,-99.12 272.44,0 302.83,198.24 302.83,308.3l0 27.34c-515.13,-2.34 -801.55,173.95 -801.55,495.52 0,192.85 138.17,383.28 408.2,383.28 189.65,0 332.51,-93.65 407.42,-198.24l7.81 0 19.53 167.78 220.11 0zm-256.04 -448.81c0,24.99 -5.47,52.33 -14.06,77.33 -38.2,112.32 -148.25,222.38 -321.5,222.38 -124.12,0 -228.7,-74.13 -228.7,-230.97 0,-258.38 299.7,-305.17 564.26,-299.7l0 230.97zm619.64 448.81l238.86 0 0 -710.25c0,-41.4 6.25,-79.59 11.72,-113.18 32.73,-181.76 153.64,-310.56 324.62,-310.56 32.73,0 57.72,2.34 82.72,7.81l0 -228.7c-22.65,-5.47 -41.4,-7.81 -69.52,-7.81 -162.31,0 -308.22,112.4 -368.28,291.89l-10.94 0 -8.59 -261.43 -212.3 0c8.59,123.33 11.72,258.31 11.72,415.23l0 917zm1965.93 -622.06c2.34,-24.99 7.81,-63.19 7.81,-113.18 0,-245.03 -115.52,-627.45 -550.28,-627.45 -388.67,0 -625.18,316.11 -625.18,717.98 0,402.73 245.11,672.05 655.65,672.05 211.52,0 357.43,-43.74 443.27,-82.72l-41.32 -173.32c-91.31,39.05 -195.9,68.74 -369.22,68.74 -241.9,0 -451.86,-134.27 -457.33,-462.09l936.61 0zm-933.48 -174.03c19.53,-167.78 126.46,-393.36 371.49,-393.36 272.44,0 338.76,239.64 336.42,393.36l-707.9 0z"/>
   </g>
  </g>
 </g>
</svg>
